# xmcd CD database file
#
# Track frame offsets:
#	150
#	11298
#	37110
#	59423
#	84735
#	115568
#	132015
#	147715
#	163110
#	184180
#	204170
#	216625
#	231205
#
# Disc length: 3314 seconds
#
# Revision: 2
# Processed by: cddbd v1.5.1PL0 Copyright (c) Steve Scherf et al.
# Submitted via: CDex 1.51
#
DISCID=bb0cf00d
DTITLE=Jimmy Witherspoon - Rockin' With Spoon
DYEAR=1900
DGENRE=Blues
TTITLE0=Good rockin' tonight
TTITLE1=When I been drinkin'
TTITLE2=Big fine girl
TTITLE3=No rollin' blues
TTITLE4=Ain't nobody's business
TTITLE5=Times gettin' tougher than tough
TTITLE6=How long
TTITLE7=Corrine, Corrina
TTITLE8=See see rider
TTITLE9=Roll 'Em Pete
TTITLE10=Everyday
TTITLE11=Kansas City
TTITLE12=St. Louis blues
EXTD=
EXTT0=
EXTT1=
EXTT2=
EXTT3=
EXTT4=
EXTT5=
EXTT6=
EXTT7=
EXTT8=
EXTT9=
EXTT10=
EXTT11=
EXTT12=
PLAYORDER=
